<?xml version="1.0" encoding="UTF-8" standalone="no"?>
<!-- Created with Inkscape (http://www.inkscape.org/) -->

<svg
   width="175.20035mm"
   height="295.54111mm"
   viewBox="0 0 175.20035 295.54111"
   version="1.1"
   id="svg5"
   xml:space="preserve"
   inkscape:version="1.2.1 (9c6d41e410, 2022-07-14, custom)"
   sodipodi:docname="quick-settings-tweaker.svg"
   xmlns:inkscape="http://www.inkscape.org/namespaces/inkscape"
   xmlns:sodipodi="http://sodipodi.sourceforge.net/DTD/sodipodi-0.dtd"
   xmlns:xlink="http://www.w3.org/1999/xlink"
   xmlns="http://www.w3.org/2000/svg"
   xmlns:svg="http://www.w3.org/2000/svg"><sodipodi:namedview
     id="namedview7"
     pagecolor="#ffffff"
     bordercolor="#999999"
     borderopacity="1"
     inkscape:showpageshadow="0"
     inkscape:pageopacity="0"
     inkscape:pagecheckerboard="0"
     inkscape:deskcolor="#d1d1d1"
     inkscape:document-units="mm"
     showgrid="false"
     inkscape:zoom="0.40088384"
     inkscape:cx="385.39843"
     inkscape:cy="396.62362"
     inkscape:window-width="933"
     inkscape:window-height="699"
     inkscape:window-x="35"
     inkscape:window-y="32"
     inkscape:window-maximized="0"
     inkscape:current-layer="svg5" /><defs
     id="defs2"><linearGradient
       inkscape:collect="always"
       id="linearGradient17406"><stop
         style="stop-color:#494949;stop-opacity:1;"
         offset="0"
         id="stop17402" /><stop
         style="stop-color:#494949;stop-opacity:0;"
         offset="0.59548312"
         id="stop17404" /></linearGradient><linearGradient
       inkscape:collect="always"
       id="linearGradient2857"><stop
         style="stop-color:#0e091c;stop-opacity:0;"
         offset="0"
         id="stop2853" /><stop
         style="stop-color:#0e091c;stop-opacity:1;"
         offset="0.6462872"
         id="stop2855" /></linearGradient><linearGradient
       inkscape:collect="always"
       xlink:href="#linearGradient2857"
       id="linearGradient2859"
       x1="9.7662601"
       y1="15.183867"
       x2="184.96661"
       y2="15.183867"
       gradientUnits="userSpaceOnUse"
       gradientTransform="translate(-9.7662605,-8.60707)" /><linearGradient
       inkscape:collect="always"
       xlink:href="#linearGradient17406"
       id="linearGradient17408"
       x1="97.827545"
       y1="278.63223"
       x2="97.8078"
       y2="296.237"
       gradientUnits="userSpaceOnUse"
       gradientTransform="translate(-8.5211449,-0.89938509)" /></defs><rect
     style="fill:#1d1d1d;fill-opacity:1;fill-rule:evenodd;stroke-width:1.54135"
     id="rect1792"
     width="152.98332"
     height="158.09138"
     x="20.293344"
     y="14.63448"
     ry="9.828475"
     rx="0" /><rect
     style="fill:#1d1d1d;fill-opacity:1;fill-rule:evenodd;stroke-width:1.53617"
     id="rect1794"
     width="152.45612"
     height="118.76708"
     x="19.951666"
     y="176.77403"
     ry="9.7625122" /><rect
     style="fill:url(#linearGradient2859);fill-opacity:1;fill-rule:evenodd;stroke-width:1.53617"
     id="rect1858"
     width="175.20035"
     height="13.153593"
     x="0"
     y="0"
     ry="4.6064644" /><rect
     style="fill:#726c85;fill-opacity:0.569389;fill-rule:evenodd;stroke-width:1.67903"
     id="rect12336"
     width="44.244751"
     height="10.304098"
     x="129.36812"
     y="1.4247473"
     ry="3.9471869" /><circle
     style="fill:#ffffff;fill-opacity:0.15038;fill-rule:evenodd;stroke-width:1.53617"
     id="path12398"
     cx="35.555275"
     cy="29.151241"
     r="8.8643847" /><circle
     style="fill:#ffffff;fill-opacity:0.15038;fill-rule:evenodd;stroke-width:1.53617"
     id="path12398-3"
     cx="58.222057"
     cy="29.680408"
     r="8.8643847" /><circle
     style="fill:#ffffff;fill-opacity:0.15038;fill-rule:evenodd;stroke-width:1.53617"
     id="path12398-6"
     cx="135.34796"
     cy="28.622074"
     r="8.8643847" /><circle
     style="fill:#ffffff;fill-opacity:0.15038;fill-rule:evenodd;stroke-width:1.53617"
     id="path12398-3-7"
     cx="158.01474"
     cy="28.622074"
     r="8.8643847" /><rect
     style="fill:#808080;fill-opacity:0.444874;fill-rule:evenodd;stroke-width:1.54606"
     id="rect15528"
     width="128.71803"
     height="3.8921256"
     x="36.904152"
     y="51.927086"
     ry="1.9460628"
     rx="0" /><rect
     style="fill:#54478f;fill-opacity:1;fill-rule:evenodd;stroke-width:1.28959"
     id="rect15528-9"
     width="89.555229"
     height="3.8921256"
     x="36.904152"
     y="51.927086"
     ry="1.9460628"
     rx="0" /><circle
     style="fill:#ffffff;fill-opacity:0.821277;fill-rule:evenodd;stroke-width:1.53617"
     id="path15530"
     cx="30.487926"
     cy="53.87315"
     r="2.5400977" /><circle
     style="fill:#ffffff;fill-opacity:0.821277;fill-rule:evenodd;stroke-width:1.53617"
     id="path15530-3"
     cx="30.487926"
     cy="71.734894"
     r="2.5400977" /><circle
     style="fill:#cd00cd;fill-opacity:0.821277;fill-rule:evenodd;stroke-width:2.15789"
     id="path15530-3-2"
     cx="30.487926"
     cy="89.596642"
     r="3.568125" /><rect
     style="fill:#808080;fill-opacity:0.444874;fill-rule:evenodd;stroke-width:1.54606"
     id="rect15528-1"
     width="128.71803"
     height="3.8921256"
     x="36.904152"
     y="69.788818"
     ry="1.9460628"
     rx="0" /><rect
     style="fill:#54478f;fill-opacity:1;fill-rule:evenodd;stroke-width:1.05192"
     id="rect15528-9-2"
     width="59.587681"
     height="3.8921256"
     x="36.904152"
     y="69.788818"
     ry="1.9460628"
     rx="0" /><rect
     style="fill:#808080;fill-opacity:0.444874;fill-rule:evenodd;stroke-width:1.54606"
     id="rect15528-1-7"
     width="128.71803"
     height="3.8921256"
     x="36.904152"
     y="87.650566"
     ry="1.9460628"
     rx="0" /><rect
     style="fill:#54478f;fill-opacity:1;fill-rule:evenodd;stroke-width:1.47297"
     id="rect15528-9-2-0"
     width="116.83566"
     height="3.8921256"
     x="36.904152"
     y="87.650566"
     ry="1.9460628"
     rx="0" /><rect
     style="fill:#70478f;fill-opacity:0.778519;fill-rule:evenodd;stroke-width:1.50776"
     id="rect15921"
     width="66.2509"
     height="14.952325"
     x="26.9198"
     y="100.91602"
     ry="7.4761624" /><rect
     style="fill:#808080;fill-opacity:0.444874;fill-rule:evenodd;stroke-width:1.50776"
     id="rect15921-3"
     width="66.2509"
     height="14.952325"
     x="99.371292"
     y="100.91602"
     ry="7.4761624" /><rect
     style="fill:#808080;fill-opacity:0.444874;fill-rule:evenodd;stroke-width:1.50776"
     id="rect15921-6"
     width="66.2509"
     height="14.952325"
     x="26.919804"
     y="121.32961"
     ry="7.4761624" /><rect
     style="fill:#808080;fill-opacity:0.269733;fill-rule:evenodd;stroke-width:0.885404"
     id="rect15921-6-7"
     width="32.268631"
     height="10.58627"
     x="133.37231"
     y="179.96387"
     ry="5.2931352" /><rect
     style="fill:#70478f;fill-opacity:0.778519;fill-rule:evenodd;stroke-width:1.50776"
     id="rect15921-3-0"
     width="66.2509"
     height="14.952325"
     x="99.371292"
     y="121.32961"
     ry="7.4761624" /><rect
     style="fill:#808080;fill-opacity:0.444874;fill-rule:evenodd;stroke-width:1.44616"
     id="rect16020"
     width="138.92244"
     height="25.290611"
     x="26.809772"
     y="141.04015"
     ry="6.9557238" /><rect
     style="fill:#808080;fill-opacity:0.444874;fill-rule:evenodd;stroke-width:1.44616"
     id="rect16020-6"
     width="138.92244"
     height="25.290611"
     x="26.718506"
     y="192.37854"
     ry="6.9557238" /><rect
     style="fill:#808080;fill-opacity:0.444874;fill-rule:evenodd;stroke-width:1.44616"
     id="rect16020-2"
     width="138.92244"
     height="25.290611"
     x="26.969227"
     y="220.82686"
     ry="6.9557238" /><rect
     style="fill:#808080;fill-opacity:0.444874;fill-rule:evenodd;stroke-width:1.44616"
     id="rect16020-61"
     width="138.92244"
     height="25.290611"
     x="26.440712"
     y="249.27518"
     ry="6.9557238" /><rect
     style="fill:url(#linearGradient17408);fill-opacity:1;fill-rule:evenodd;stroke-width:1.20761"
     id="rect16020-8"
     width="138.92244"
     height="17.635506"
     x="26.996296"
     y="277.72345"
     ry="8.8177528"
     rx="0" /><path
     class="ColorScheme-Text"
     d="m 40.430707,145.64561 c -1.272597,0 -2.297064,1.02451 -2.297064,2.29711 v 7.0977 c -0.366378,-0.1311 -0.752811,-0.20577 -1.148576,-0.20664 -1.902992,0 -3.445641,1.54261 -3.445641,3.44564 0,1.90304 1.542649,3.44565 3.445641,3.44565 1.903035,0 3.44564,-1.54261 3.44564,-3.44565 V 147.9425 h 6.891282 v 7.09769 c -0.366378,-0.13066 -0.752767,-0.20532 -1.148533,-0.20619 -1.903035,0 -3.445641,1.54261 -3.445641,3.44564 0,1.90299 1.542606,3.44564 3.445641,3.44564 1.903036,0 3.445641,-1.54265 3.445641,-3.44564 v -10.33692 c 0,-1.2726 -1.024511,-2.29711 -2.297108,-2.29711 z m -3.44564,11.48549 c 0.634345,0 1.148576,0.51424 1.148576,1.14854 0,0.6343 -0.514231,1.14854 -1.148576,1.14854 -0.634302,0 -1.148533,-0.51424 -1.148533,-1.14854 0,-0.6343 0.514231,-1.14854 1.148533,-1.14854 z m 9.188389,0 c 0.634302,0 1.148533,0.51424 1.148533,1.14854 0,0.6343 -0.514231,1.14854 -1.148533,1.14854 -0.634301,0 -1.148532,-0.51424 -1.148532,-1.14854 0,-0.6343 0.514231,-1.14854 1.148532,-1.14854 z"
     color="#555555"
     fill="currentColor"
     id="path16228"
     style="fill:#d7d7d7;fill-opacity:0.75121;stroke-width:1.14855" /></svg>
