<svg width="771" height="771" viewBox="0 0 771 771" fill="none" xmlns="http://www.w3.org/2000/svg">
<path d="M0 163.2C0 123.014 0 102.921 4.76476 86.5211C16.226 47.0712 47.0712 16.226 86.5211 4.76476C102.921 0 123.014 0 163.2 0H607.8C647.986 0 668.079 0 684.479 4.76476C723.929 16.226 754.774 47.0712 766.235 86.5211C771 102.921 771 123.014 771 163.2V607.8C771 647.986 771 668.079 766.235 684.479C754.774 723.929 723.929 754.774 684.479 766.235C668.079 771 647.986 771 607.8 771H163.2C123.014 771 102.921 771 86.5211 766.235C47.0712 754.774 16.226 723.929 4.76476 684.479C0 668.079 0 647.986 0 607.8V163.2Z" fill="black"/>
<path d="M102 499C102 459.788 133.788 428 173 428H599C638.212 428 670 459.788 670 499V602C670 641.212 638.212 673 599 673H173C133.788 673 102 641.212 102 602V499Z" fill="#808080"/>
<path d="M361 227.5C361 299.021 303.021 357 231.5 357C159.979 357 102 299.021 102 227.5C102 155.979 159.979 98 231.5 98C303.021 98 361 155.979 361 227.5Z" fill="#808080"/>
<path fill-rule="evenodd" clip-rule="evenodd" d="M513.774 425C609.043 425 686.274 347.769 686.274 252.5C686.274 157.231 609.043 80 513.774 80C418.505 80 341.274 157.231 341.274 252.5C341.274 264.537 342.507 276.285 344.853 287.626C344.118 288.275 343.399 288.951 342.696 289.654L118.234 514.116C99.8796 532.47 99.8796 562.229 118.234 580.584L196.975 659.325C215.33 677.679 245.089 677.679 263.443 659.325L487.905 434.863C491.176 431.592 493.864 427.959 495.969 424.092C501.822 424.692 507.762 425 513.774 425Z" fill="white"/>
<path fill-rule="evenodd" clip-rule="evenodd" d="M513.774 379C583.638 379 640.274 322.364 640.274 252.5C640.274 182.636 583.638 126 513.774 126C443.91 126 387.274 182.636 387.274 252.5C387.274 267.25 389.799 281.411 394.439 294.574L144.282 544.731L231.556 632.004L487.329 376.232C495.858 378.046 504.704 379 513.774 379Z" fill="black"/>
<path d="M586.14 116.047L661.512 191.42L557.292 295.639L481.92 220.267L586.14 116.047Z" fill="white"/>
</svg>
