<?xml version="1.0" encoding="utf-8"?>
<svg version="1.1" id="Layer_1" xmlns="http://www.w3.org/2000/svg" xmlns:xlink="http://www.w3.org/1999/xlink" x="0px" y="0px"
	 viewBox="0 0 1000 1000" style="enable-background:new 0 0 1000 1000;" xml:space="preserve">
<path d="M820.5,0.8c-207.7,0-246.6,295.8-129.8,295.8S1028.2,0.8,820.5,0.8z M475.7,260
	c62.2,3.8,130.5-237.1,13.5-222.2S413.5,256.2,475.7,260z M190.6,409.5c44.2-19.5,5.7-210-69.6-158S146,429.3,190.6,409.5z
	 M315.2,309.9c52.7-10.7,55.5-226.8-38.4-188S262.6,320.6,315.2,309.9z M590.3,793.6c9.4,71.4-52.3,106.6-112.8,60.6
	C285.1,707.8,795.7,634.7,762.3,434.6c-28-166.1-537.5-115-595.9,144.9c-39,175.8,162,419.6,371.7,419.6
	c103.2,0,222.1-93.2,244.4-211.1C799.5,698,582.4,734,590.3,793.6L590.3,793.6z"/>
</svg>
